# xmcd
#
# Track frame offsets:
#	182
#	19990
#	32932
#	48002
#	61552
#	73087
#	85055
#	95870
#	107957
#	122777
#	136685
#	150450
#	161632
#	174747
#	183462
#	197362
#	228862
#	241275
#	252317
#	265770
#	278210
#	298370
#
# Disc length: 4166
#
# Revision: 4
# Processed by: cddbd v1.5.1PL0 Copyright (c) Steve Scherf et al.
# Submitted via: EasyCDDAExtractor 6.5.0.1
# Normalized: r3:DSETVAR1
#
DISCID=37104416
DTITLE=Various Artist - The Great Tomato Blues Package [CD1]
DYEAR=1989
DGENRE=Blues
TTITLE0=Johnny Shines - Too Wet to Plow
TTITLE1=Mississippi Fred McDowell - You Got To Move
TTITLE2=Peg Leg Sam - Joshua Fit the Battle of Jericho
TTITLE3=Louisiana Red - Sweet Blood Call
TTITLE4=Lightnin' Hopkins - Cryin' Shame
TTITLE5=Sonny Terry - Playing with the Thing
TTITLE6=Sonny Boy Williams - Fattening Frogs for Snakes
TTITLE7=Roosevelt Sykes - Music is My Business
TTITLE8=Jelly Roll Morton - Dead Man Blues
TTITLE9=Louis Armstrong - St. Louis Blues
TTITLE10=Bessie Smith - Alexander's Ragtime Band
TTITLE11=Champion Jack Dupree - Shake Baby Shake
TTITLE12=Willie Mabon - Poison Ivy
TTITLE13=Billie Holiday - Please Don't Talk About Me When I'm Gone
TTITLE14=Charlie Parker - Parker's Mood
TTITLE15='Big Mama' Thornton - Ball and Chain
TTITLE16=Little Walter - Juke
TTITLE17=Howlin' Wolf - Little Red Rooster
TTITLE18=Buster Brown - Fanny Mae
TTITLE19=Elmore James - The Sky is Crying
TTITLE20=Aretha Franklin - There is a Fountain
TTITLE21=Ray Charles - Blues is My Middle Name
EXTD=
EXTT0=
EXTT1=
EXTT2=
EXTT3=
EXTT4=
EXTT5=
EXTT6=
EXTT7=
EXTT8=
EXTT9=
EXTT10=
EXTT11=
EXTT12=
EXTT13=
EXTT14=
EXTT15=
EXTT16=
EXTT17=
EXTT18=
EXTT19=
EXTT20=
EXTT21=
PLAYORDER=
